<?xml version="1.0" encoding="utf-8"?>
<!-- Svg Vector Icons : http://www.onlinewebfonts.com/icon -->
<!DOCTYPE svg PUBLIC "-//W3C//DTD SVG 1.1//EN" "http://www.w3.org/Graphics/SVG/1.1/DTD/svg11.dtd">
<svg version="1.1" xmlns="http://www.w3.org/2000/svg" xmlns:xlink="http://www.w3.org/1999/xlink" x="0px" y="0px" viewBox="0 0 256 256" enable-background="new 0 0 256 256" xml:space="preserve">
<metadata> Svg Vector Icons : http://www.onlinewebfonts.com/icon </metadata>
<g><g><g><path fill="#FFFFFF" d="M83,10.5c-2.1,0.6-3.7,1.9-4.8,3.9c-1,1.8-1.1,2.4-1.1,16.1c0,16,0.1,16.6,3.6,18.9c1.9,1.3,2.2,1.3,10.8,1.5l8.8,0.1l-0.1,8.7l-0.1,8.7l-1.7,0.4c-6.2,1.6-13.9,4.3-18.7,6.6c-37.3,17.7-57.7,58.8-49.3,99.3c2.8,13.5,9.5,27.6,18.3,38.3c4.1,5.1,12.4,12.8,17.8,16.7c5.8,4.1,16.9,9.7,23.7,11.9c43.3,14,89.5-5.9,109.1-46.8c9.7-20.3,11.3-44.5,4.3-65.9c-1.9-5.8-5.1-13.1-7.5-17l-1.8-3l1.5-1.3c0.8-0.7,2.5-2,3.6-2.8l2.1-1.5l2.9,3.9c3.7,5.1,5.9,6.3,8.7,4.8c2-1,13.1-9.8,13.9-10.9c1.7-2.5,1.1-3.8-5.5-12.6c-20.1-26.5-19.9-26.2-21.7-26.7c-2.4-0.7-3.3-0.2-10.8,5.4c-9,6.8-9.2,7.6-4.3,14.2c1.4,2,2.8,3.8,2.9,4.2c0.2,0.6-6.1,5.8-7.1,5.8c-0.2,0-1.6-0.9-2.9-2.1c-6.1-5.4-13.8-10.5-21.3-14c-4.8-2.3-14.8-5.7-18.3-6.3l-2.1-0.3v-8.8v-8.8h7.8c4.2,0,8.5-0.2,9.5-0.5c2-0.5,4.6-3,5.4-5.1c0.8-2.2,0.7-28.1-0.1-30.1c-0.8-2.1-3.3-4.1-5.6-4.8C150.5,9.9,84.9,9.8,83,10.5z M131.2,90.8c12.5,2.6,23.7,8.4,32.9,17.3c10.6,10.2,17.5,23.1,19.8,37.4c1.2,7.4,0.8,19.7-0.9,26.5c-3.2,12.5-8.9,22.6-17.8,31.6c-8.9,8.9-19.1,14.7-31.6,17.8c-6.9,1.7-19.1,2.1-26.5,0.9C68.5,216,43.5,177.8,53.2,140c3.1-12.1,8.7-22.1,17.5-30.9c10.6-10.6,24-17.2,39.1-19.2C115.1,89.2,125.4,89.6,131.2,90.8z"/><path fill="#FFFFFF" d="M89.5,145.5c22.2,25.9,21.3,25.1,28.5,25.1c3.2,0,4.6-0.2,5.9-0.9c3.5-1.8,5.4-3.8,7-7c1.4-3,1.5-3.5,1.3-7c-0.3-4.7-1.4-7.1-4.7-10.1c-2.2-2-4.4-2.9-29.5-12.4c-14.9-5.6-27.2-10.2-27.5-10.2C70.3,122.9,78.9,133.1,89.5,145.5z"/></g></g></g>
</svg>