<?xml version="1.0" standalone="no"?>
<!DOCTYPE svg PUBLIC "-//W3C//DTD SVG 20010904//EN"
 "http://www.w3.org/TR/2001/REC-SVG-20010904/DTD/svg10.dtd">
<svg version="1.0" xmlns="http://www.w3.org/2000/svg"
 width="512.000000pt" height="512.000000pt" viewBox="0 0 512.000000 512.000000"
 preserveAspectRatio="xMidYMid meet">
<metadata>
Created by potrace 1.16, written by Peter Selinger 2001-2019
</metadata>
<g transform="translate(0.000000,512.000000) scale(0.100000,-0.100000)"
fill="#FFFFFF" stroke="none">
<path d="M187 4932 c-147 -147 -188 -194 -185 -211 2 -18 40 15 213 189 175
175 206 210 185 210 -19 0 -69 -44 -213 -188z"/>
<path d="M287 4832 c-227 -227 -288 -294 -285 -311 2 -17 59 35 313 289 255
255 305 310 285 310 -20 0 -89 -64 -313 -288z"/>
<path d="M387 4732 c-307 -307 -388 -393 -385 -411 2 -17 79 55 413 389 335
335 405 410 385 410 -20 0 -109 -84 -413 -388z"/>
<path d="M487 4632 c-388 -388 -488 -493 -485 -511 2 -17 99 74 513 489 415
415 505 510 485 510 -20 0 -129 -104 -513 -488z"/>
<path d="M587 4532 c-468 -468 -588 -593 -585 -611 2 -17 118 94 613 589 495
495 605 610 585 610 -20 0 -149 -124 -613 -588z"/>
<path d="M687 4432 c-548 -548 -688 -693 -685 -711 2 -17 138 114 713 689 575
575 705 710 685 710 -20 0 -169 -144 -713 -688z"/>
<path d="M787 4332 c-629 -629 -788 -793 -785 -811 2 -17 158 133 813 789 655
655 805 810 785 810 -20 0 -189 -164 -813 -788z"/>
<path d="M887 4232 c-709 -709 -888 -893 -885 -911 2 -17 177 153 913 889 735
735 905 910 885 910 -20 0 -209 -184 -913 -888z"/>
<path d="M1556 4701 c-387 -387 -425 -423 -492 -455 -87 -43 -160 -118 -203
-209 -26 -54 -83 -114 -446 -477 -325 -325 -415 -420 -415 -440 0 -20 76 51
413 387 l412 413 0 -75 0 -75 -412 -412 c-323 -323 -413 -419 -413 -438 0 -20
78 53 419 394 l419 419 21 -48 c12 -26 21 -50 21 -54 0 -3 -198 -204 -440
-446 -345 -345 -440 -445 -440 -465 0 -20 129 104 678 652 598 597 688 683
772 738 52 34 97 64 99 66 2 2 -3 12 -12 22 -15 17 -2 32 238 272 140 140 255
248 255 239 0 -9 11 -32 24 -51 l24 -35 -1039 -1039 c-825 -825 -1039 -1044
-1039 -1064 0 -20 204 179 1053 1027 1007 1007 1053 1051 1072 1037 11 -9 33
-21 49 -26 l28 -11 -323 -324 c-178 -179 -364 -357 -414 -397 -114 -92 -243
-222 -339 -339 -41 -51 -311 -328 -600 -617 -414 -413 -526 -530 -526 -550 0
-20 90 65 484 459 447 447 482 480 455 425 -22 -43 -29 -70 -28 -102 l3 -43
-457 -457 c-358 -358 -457 -462 -457 -482 0 -20 86 61 463 437 l462 462 36
-38 36 -39 -498 -498 c-392 -392 -499 -504 -499 -524 0 -20 67 42 371 345 313
312 362 357 313 290 -302 -416 -338 -461 -511 -635 -130 -132 -173 -181 -173
-200 0 -21 19 -6 124 99 121 121 125 124 131 98 4 -15 18 -36 30 -46 l24 -18
-155 -154 c-117 -116 -154 -160 -154 -179 0 -21 30 5 183 158 l182 182 75 0
75 0 -258 -258 c-198 -198 -257 -263 -257 -282 0 -20 51 26 283 258 l282 282
56 0 c39 0 59 -4 62 -13 3 -9 -129 -148 -339 -358 -269 -268 -344 -349 -344
-369 0 -20 62 37 345 320 189 189 346 342 348 340 3 -3 10 -30 16 -60 l12 -54
-361 -361 c-280 -281 -360 -366 -360 -385 0 -20 67 42 365 340 200 200 366
362 368 360 3 -3 11 -28 19 -56 l15 -52 -383 -383 c-301 -301 -384 -389 -384
-409 0 -20 71 46 390 365 l389 389 21 -48 c11 -26 20 -51 20 -54 0 -4 -185
-192 -410 -417 -321 -321 -410 -415 -410 -435 0 -20 77 52 418 393 l418 418
24 -51 24 -51 -442 -442 c-346 -346 -442 -447 -442 -467 0 -20 84 59 448 423
246 246 449 447 452 447 3 0 17 -20 30 -45 l25 -45 -478 -478 c-374 -374 -477
-482 -477 -502 0 -20 92 67 487 462 l488 488 29 -46 29 -46 -489 -489 c-398
-398 -484 -489 -464 -489 20 0 127 101 499 474 l474 474 33 -41 32 -42 -431
-433 c-352 -352 -427 -432 -407 -432 19 0 116 91 443 418 l418 417 34 -40 35
-40 -378 -377 c-308 -309 -372 -378 -352 -378 20 0 105 80 390 365 l365 365
37 -37 38 -37 -327 -328 c-268 -268 -323 -328 -303 -328 19 0 96 70 340 314
l315 315 40 -35 39 -35 -279 -279 c-231 -231 -275 -280 -255 -280 20 0 85 60
290 265 146 146 269 265 275 265 5 0 26 -14 45 -30 l35 -29 -235 -236 c-194
-194 -231 -235 -210 -235 19 0 77 52 250 225 l225 225 40 -27 c22 -14 42 -28
45 -30 2 -2 -83 -91 -190 -198 -162 -162 -191 -195 -170 -195 19 0 70 45 211
186 l187 186 47 -27 47 -28 -158 -158 c-133 -133 -155 -159 -134 -159 19 0 63
38 176 151 l151 151 44 -22 c24 -12 46 -24 49 -27 2 -2 -52 -60 -120 -128
-107 -107 -121 -125 -100 -125 19 0 56 30 144 119 l118 118 55 -20 54 -20 -98
-99 c-84 -84 -94 -98 -73 -98 18 0 50 26 116 91 l91 90 58 -16 57 -17 -73 -74
c-65 -65 -71 -74 -49 -74 17 0 46 21 95 70 l70 69 45 -10 c25 -6 51 -13 59
-15 10 -3 -2 -22 -39 -59 -50 -50 -52 -55 -30 -55 16 0 42 18 76 51 l52 51 67
-7 67 -8 -43 -43 c-41 -42 -42 -44 -18 -44 16 0 39 14 64 40 39 40 40 40 114
40 l75 0 -39 -40 c-38 -39 -38 -40 -14 -40 16 0 39 14 64 40 39 40 40 40 114
40 l75 0 -39 -40 c-38 -39 -38 -40 -14 -40 16 0 40 15 68 44 36 37 51 45 94
50 29 4 68 9 87 13 l35 5 -55 -56 c-50 -51 -52 -56 -30 -56 17 0 46 21 90 64
61 60 71 66 146 85 44 11 89 23 100 27 10 4 -21 -34 -71 -85 -78 -79 -86 -91
-65 -91 18 0 55 30 135 108 98 96 119 112 190 142 44 18 105 46 135 63 52 28
45 20 -115 -142 -143 -144 -166 -171 -145 -171 19 0 73 48 230 206 113 113
241 232 285 265 161 119 336 294 469 469 35 47 197 218 360 380 230 229 296
300 296 320 0 21 -45 -20 -260 -235 l-261 -260 60 125 c34 69 61 130 61 135 0
6 90 100 200 210 153 153 200 206 200 225 0 21 -29 -4 -181 -155 -100 -99
-178 -171 -175 -160 4 11 18 58 32 105 l25 85 149 150 c112 113 150 156 150
175 0 21 -23 2 -146 -120 -105 -105 -144 -138 -140 -120 3 14 10 54 16 90 l10
64 130 131 c96 97 130 137 130 155 0 21 -20 5 -129 -104 l-128 -128 4 79 5 78
124 125 c91 92 124 132 124 150 0 21 -19 6 -124 -99 l-124 -124 -7 68 -8 67
132 132 c97 97 131 138 131 156 0 21 -21 4 -134 -109 l-133 -133 -8 67 -7 68
141 141 c105 105 141 148 141 166 0 21 -23 2 -145 -120 -79 -79 -146 -142
-148 -140 -3 3 -10 30 -16 60 l-12 54 161 161 c120 121 160 166 160 185 0 21
-27 -2 -165 -140 -90 -90 -166 -162 -168 -160 -1 3 -10 28 -19 56 l-15 52 183
183 c141 140 184 190 184 209 0 21 -31 -6 -190 -165 l-189 -189 -21 48 c-11
26 -20 51 -20 54 0 4 95 102 210 217 161 161 210 216 210 235 0 21 -37 -12
-219 -194 l-219 -219 -21 48 c-12 26 -21 50 -21 54 0 3 108 114 240 246 185
185 240 246 240 265 0 21 -43 -18 -250 -225 -237 -237 -250 -248 -264 -230 -8
11 -21 33 -27 48 -12 29 -10 31 264 305 214 214 277 283 277 302 0 20 -52 -27
-288 -262 l-287 -288 -29 46 -29 46 316 316 c246 246 317 323 317 342 0 20
-60 -35 -328 -303 l-328 -328 -31 44 -32 44 79 78 c76 75 79 77 91 56 8 -11
17 -21 22 -21 8 0 67 118 67 135 0 6 104 114 230 240 177 177 230 236 230 255
0 21 -38 -13 -224 -199 l-224 -224 -4 69 -4 69 228 230 c174 176 228 236 228
255 0 21 -41 -16 -233 -208 l-234 -234 -25 51 -24 50 258 258 c200 200 258
263 258 283 0 20 -47 -22 -269 -244 l-269 -269 -37 38 -38 37 307 307 c237
237 306 312 306 331 0 20 -58 -33 -322 -296 l-323 -322 -49 25 -49 25 372 372
c289 289 371 377 371 396 0 20 -72 -47 -392 -366 l-393 -390 -69 4 -69 4 414
414 c338 338 409 414 389 414 -20 0 -116 -91 -445 -420 -231 -231 -427 -420
-436 -420 -22 0 -154 -67 -170 -86 -11 -13 -11 -17 1 -25 47 -28 48 -25 -34
-108 l-79 -79 -48 26 -48 27 542 543 c440 440 537 542 517 542 -20 0 -139
-113 -559 -534 l-534 -534 -46 21 c-25 12 -48 23 -51 25 -2 1 225 232 505 512
414 414 505 510 485 510 -20 0 -133 -108 -527 -502 l-502 -502 -56 19 -56 19
483 483 c392 392 478 483 458 483 -20 0 -128 -103 -501 -476 l-476 -476 -57
18 -57 18 458 458 c373 373 453 458 433 458 -20 0 -122 -97 -475 -450 -247
-247 -455 -450 -462 -450 -7 0 -35 5 -64 11 l-52 11 439 439 c358 358 434 439
414 439 -20 0 -119 -94 -460 -435 l-435 -435 -60 6 c-33 4 -62 8 -65 11 -9 8
275 283 292 283 35 0 109 43 143 83 20 23 42 64 50 92 14 44 35 70 188 223
143 143 168 172 147 172 -19 0 -62 -37 -172 -147 -123 -123 -148 -144 -153
-127 -4 10 -13 34 -21 53 l-15 34 93 94 c81 81 89 93 68 93 -18 0 -48 -22
-104 -79 l-80 -80 -33 30 c-19 16 -39 29 -45 29 -7 0 10 23 37 50 46 47 48 50
24 50 -16 0 -39 -14 -64 -40 -39 -40 -40 -40 -114 -40 l-75 0 39 40 c38 39 38
40 14 40 -16 0 -39 -14 -64 -40 -39 -40 -40 -40 -114 -40 l-75 0 39 40 c38 39
38 40 14 40 -16 0 -39 -14 -64 -40 -39 -40 -40 -40 -114 -40 l-75 0 39 40 c38
39 38 40 14 40 -16 0 -39 -14 -64 -40 -39 -40 -40 -40 -114 -40 l-75 0 39 40
c38 39 38 40 14 40 -16 0 -39 -14 -64 -40 -39 -40 -40 -40 -114 -40 l-75 0 39
40 c38 39 38 40 14 40 -16 0 -39 -14 -63 -39 -34 -35 -44 -39 -96 -43 -118 -8
-220 -111 -220 -222 l0 -51 -267 -267 -266 -266 -46 21 c-25 12 -48 23 -51 25
-2 1 185 192 415 422 343 343 415 420 395 420 -20 0 -115 -90 -440 -415 l-415
-415 -75 0 -75 0 415 415 c339 339 410 415 390 415 -20 0 -116 -91 -444 -419z
m634 -367 c-145 -145 -217 -210 -245 -221 -22 -9 -87 -41 -145 -70 l-105 -54
275 276 275 275 75 0 75 0 -205 -206z m370 188 c0 -24 -291 -312 -316 -312
-10 0 -55 -11 -98 -25 l-80 -24 189 189 190 190 57 0 c49 0 58 -3 58 -18z
m510 -107 l-125 -125 -3 71 -3 72 53 54 52 53 76 0 75 0 -125 -125z m-531
-131 c-12 -13 -34 -24 -48 -24 -14 -1 -55 -7 -90 -14 l-64 -14 109 109 109
109 3 -71 c3 -63 0 -75 -19 -95z m1530 -191 c20 -14 38 -28 40 -30 6 -5 -141
-153 -151 -153 -5 0 -27 12 -49 27 l-40 26 78 79 c43 43 79 78 82 78 2 0 20
-12 40 -27z m133 -99 l26 -21 -77 -77 -77 -76 -43 31 -43 32 78 78 c65 66 80
76 93 66 9 -6 28 -21 43 -33z m118 -99 c12 -14 4 -26 -63 -92 l-76 -77 -39 35
-39 34 75 77 75 77 27 -19 c15 -11 33 -26 40 -35z m-2344 -774 l-759 -759 -33
41 -32 42 706 708 c389 390 716 712 727 717 11 5 49 9 85 9 l65 1 -759 -759z
m954 756 c0 -1 -366 -368 -813 -815 l-814 -814 -33 42 -33 42 774 774 774 774
72 0 c40 0 73 -1 73 -3z m157 -26 c8 -4 -310 -329 -843 -861 l-855 -855 -29
35 c-16 19 -30 39 -30 45 0 5 370 380 822 832 l823 823 50 -6 c27 -4 56 -10
62 -13z m-1262 -681 c-379 -379 -692 -690 -695 -690 -3 0 -18 19 -34 41 l-29
41 632 632 632 632 72 16 c40 9 81 16 92 17 13 1 -230 -249 -670 -689z m2575
645 l34 -35 -74 -75 -74 -75 -38 37 -38 37 72 73 c40 40 75 73 78 73 3 0 21
-16 40 -35z m-1202 14 c26 -7 50 -15 54 -18 4 -4 -89 -103 -207 -221 l-214
-214 -60 3 c-33 1 -70 -3 -83 -9 -13 -7 85 96 217 229 132 133 241 241 243
241 2 0 24 -5 50 -11z m-1547 -633 l-605 -605 -33 37 c-17 20 -32 39 -33 42 0
3 233 238 518 523 l517 517 110 45 c61 24 114 44 120 45 5 0 -262 -272 -594
-604z m1751 565 c4 -4 -101 -114 -233 -246 -219 -220 -241 -238 -251 -220 -7
11 -22 29 -35 40 l-22 20 221 221 221 222 46 -15 c25 -9 49 -19 53 -22z m1098
-46 l34 -35 -77 -78 -78 -77 -36 39 -35 38 73 74 c40 41 76 74 79 74 3 0 21
-16 40 -35z m-993 2 l43 -22 -305 -305 -305 -305 0 75 0 75 252 252 c139 139
257 253 263 253 5 -1 29 -11 52 -23z m-195 -460 l-367 -367 -3 72 -3 72 322
322 322 322 48 -26 48 -27 -367 -368z m-1422 380 c0 -1 -136 -137 -302 -302
-166 -165 -293 -286 -283 -270 111 185 316 396 515 530 65 44 70 47 70 42z
m1862 -63 c21 -15 38 -30 38 -33 0 -3 -191 -197 -425 -431 l-425 -425 0 75 0
75 382 382 c211 211 385 383 387 383 3 0 22 -12 43 -26z m138 -109 c12 -14
-39 -69 -427 -457 l-440 -440 -41 21 c-23 12 -42 27 -42 34 0 6 199 211 442
454 l442 442 26 -19 c15 -11 33 -26 40 -35z m-321 -551 l-441 -441 -39 36 -38
36 442 442 442 443 37 -37 38 -37 -441 -442z m501 371 l34 -36 -450 -450 -451
-451 -27 48 -27 48 438 438 c241 241 440 438 443 438 4 0 21 -16 40 -35z
m-1480 -21 c-6 -14 -10 -51 -10 -82 l0 -57 -553 -553 -554 -554 -32 43 -31 44
592 592 c326 326 594 593 595 593 1 0 -2 -12 -7 -26z m1590 -129 c0 -5 -213
-223 -472 -483 l-473 -472 -11 62 -10 63 455 457 455 457 28 -37 c15 -20 28
-41 28 -47z m56 -81 l27 -46 -556 -556 c-498 -498 -553 -550 -527 -499 16 31
34 83 41 114 l12 58 486 488 c267 268 487 487 488 487 1 0 14 -21 29 -46z
m-2353 -826 c-384 -384 -700 -694 -704 -690 -3 4 -14 27 -23 51 l-17 44 108
109 108 108 53 0 c44 0 57 5 79 26 22 22 25 31 20 72 l-6 47 537 538 537 537
3 -72 3 -72 -698 -698z m2426 695 l22 -47 -1132 -1132 -1133 -1133 -49 26 -50
25 1154 1154 c635 635 1156 1154 1159 1154 4 0 16 -21 29 -47z m-3245 -114
l-116 -116 -63 0 c-44 1 -71 -5 -91 -17 -16 -10 31 42 103 115 l133 134 75 0
75 0 -116 -116z m849 -751 l-668 -668 -25 50 -24 51 689 689 690 690 3 -72 3
-72 -668 -668z m2463 693 c5 -24 -97 -128 -1080 -1111 l-1085 -1084 -56 19
-56 19 1123 1123 1123 1123 13 -31 c7 -17 15 -43 18 -58z m48 -146 c6 -29 -33
-69 -1028 -1064 l-1035 -1035 -57 18 -57 18 1074 1074 c1068 1068 1074 1074
1085 1047 7 -16 15 -41 18 -58z m-1844 32 c0 -30 -5 -37 -52 -62 -103 -56
-194 -173 -219 -279 -11 -49 -26 -66 -498 -539 -267 -268 -489 -487 -493 -487
-3 0 -17 19 -31 43 l-24 42 656 658 c361 361 657 657 658 657 2 0 3 -15 3 -33z
m1875 -180 l7 -50 -963 -964 -964 -964 -54 6 c-29 3 -58 8 -64 12 -5 3 447
462 1004 1019 637 637 1016 1009 1020 1002 4 -7 11 -34 14 -61z m-857 -1114
l-883 -883 -45 0 c-112 0 -177 -72 851 957 l944 943 8 -67 9 -66 -884 -884z
m-903 897 l-110 -111 -3 40 c-7 89 83 181 177 181 l46 0 -110 -110z m175 75
c63 -33 59 -41 -79 -179 l-127 -127 -26 21 c-55 42 -50 52 78 181 65 66 120
119 122 119 2 0 16 -7 32 -15z m80 -148 c0 -108 -112 -202 -218 -182 l-35 7
118 118 c125 125 135 129 135 57z m-1094 -564 c-248 -249 -453 -453 -456 -453
-3 0 -18 19 -34 41 l-29 41 474 474 474 474 11 -62 10 -63 -450 -452z m2621
490 l-6 -77 -778 -778 -778 -778 -75 0 -75 0 855 855 c470 470 857 855 859
855 2 0 1 -35 -2 -77z m-2132 -141 l19 -43 -437 -437 -436 -436 -35 39 -35 40
447 447 c245 246 449 444 452 440 4 -4 15 -26 25 -50z m2105 -95 l-12 -72
-641 -642 c-634 -635 -642 -643 -692 -652 -147 -29 -206 -100 610 718 407 408
742 736 743 731 2 -6 -2 -43 -8 -83z m-2425 -487 l-435 -435 -37 38 -38 37
435 435 435 435 38 -37 37 -38 -435 -435z m-805 395 c-47 -47 -88 -85 -92 -85
-3 0 -12 25 -19 55 -12 55 -12 56 16 85 27 28 34 30 104 30 l76 0 -85 -85z
m1317 -10 c24 -11 43 -22 43 -25 0 -3 -199 -204 -442 -447 l-443 -443 -40 35
-40 34 435 435 c239 240 437 435 440 434 3 -2 24 -12 47 -23z m-53 -526 l-551
-551 -46 29 -46 29 482 482 482 482 57 11 c31 6 80 24 110 39 29 16 55 29 58
29 3 1 -243 -247 -546 -550z m222 473 l44 -7 -469 -469 -470 -470 -40 27 c-23
15 -41 31 -41 35 0 4 201 208 447 454 349 349 452 447 466 442 10 -3 39 -9 63
-12z m1673 -98 c-17 -49 -37 -100 -44 -114 -8 -14 -209 -220 -447 -458 l-434
-433 -89 -33 c-50 -18 -101 -37 -115 -41 -15 -4 207 225 565 584 324 324 591
589 592 587 2 -2 -11 -43 -28 -92z m-132 -289 c-148 -252 -398 -501 -629 -629
-44 -24 5 30 302 328 195 196 356 356 357 356 1 0 -12 -25 -30 -55z"/>
<path d="M4385 730 c-591 -591 -725 -730 -705 -730 37 0 1443 1407 1438 1439
-2 17 -142 -118 -733 -709z"/>
<path d="M4485 630 c-511 -511 -625 -630 -605 -630 37 0 1243 1207 1238 1239
-2 17 -122 -98 -633 -609z"/>
<path d="M4585 530 c-431 -431 -525 -530 -505 -530 37 0 1043 1007 1038 1039
-2 17 -103 -78 -533 -509z"/>
<path d="M4685 430 c-351 -351 -425 -430 -405 -430 37 0 843 807 838 839 -2
17 -83 -59 -433 -409z"/>
<path d="M4785 330 c-271 -271 -325 -330 -305 -330 37 0 643 607 638 639 -2
17 -63 -39 -333 -309z"/>
<path d="M4885 230 c-191 -191 -226 -230 -205 -230 37 0 443 407 438 439 -2
18 -44 -19 -233 -209z"/>
</g>
</svg>
