<svg viewBox="0 0 100 100" preserveAspectRatio="xMidYMid meet" style="pointer-events: none; display: block; width: 100%; height: 100%;" xmlns="http://www.w3.org/2000/svg"><g transform="matrix(1.4103339,0,0,1.4103339,-20.342426,-19.474829)">
			<path fill="-1" d="m 46.2,59.5 7.6,0 6.2,-36 c 0.1,-0.5 0.2,-1.2 0.2,-1.9 0,-5.1 -3.4,-7.7 -10.1,-7.7 -6.8,0 -10.1,2.6 -10.1,7.8 0,0.6 0,1.2 0.2,1.8 l 6,36 z" ></path>
			<path fill="-1" d="m 50,66.9 c -5.9,0 -8.9,2.9 -8.9,8.9 0,5.9 2.9,8.9 8.9,8.9 5.9,0 8.9,-2.9 8.9,-8.9 0,-5.9 -3,-8.9 -8.9,-8.9 z" ></path>
		</g></svg>