<svg viewBox="0 0 100 100" preserveAspectRatio="xMidYMid meet" class="style-scope iron-icon" style="pointer-events: none; display: block; width: 100%; height: 100%;" xmlns="http://www.w3.org/2000/svg"><g class="style-scope iron-icon">
			<rect fill="black" width="100" height="100" class="style-scope iron-icon"></rect>
			<path fill="white" d="M42.6,22.8c-0.3,0.3-0.6,0.7-0.8,1l-38.9,39c-0.2,0.2-0.3,0.4-0.4,0.5c-0.3,0.3-0.6,0.6-0.8,1
				c-0.2,0.3-0.4,0.7-0.5,1s-0.3,0.5-0.4,0.8c-0.1,0.4-0.3,0.8-0.4,1.2c-0.1,0.3-0.2,0.5-0.2,0.7c-0.3,1.3-0.3,2.7,0,4
				c0.1,0.3,0.2,0.6,0.3,0.8c0.1,0.3,0.2,0.7,0.3,1.1c0.1,0.3,0.3,0.6,0.5,0.9c0.1,0.3,0.3,0.6,0.4,0.8c0.4,0.5,0.8,1,1.2,1.5L3,77.2
				l0,0c0.5,0.5,1,0.9,1.5,1.2c0.2,0.2,0.5,0.3,0.7,0.4c0.3,0.2,0.6,0.4,1,0.5c0.3,0.1,0.6,0.2,1,0.3c0.3,0.1,0.6,0.2,0.9,0.3
				c0.6,0.1,1.1,0.2,1.7,0.2c0.1,0,0.2,0,0.3,0h78.6c0.2,0,0.3,0,0.5,0c2.8,0.2,5.6-0.8,7.7-2.9c4-4,4-10.4,0-14.4L58,23.8
				c-0.3-0.3-0.5-0.7-0.8-1c-2-2-4.6-3-7.3-3C47.3,19.9,44.6,20.8,42.6,22.8z" class="style-scope iron-icon"></path>
		</g></svg>
    
  