<svg viewBox="0 0 100 100" preserveAspectRatio="xMidYMid meet" class="style-scope iron-icon" style="pointer-events: none; display: block; width: 100%; height: 100%;" xmlns="http://www.w3.org/2000/svg"><g class="style-scope iron-icon">
			<rect fill="black" width="100" height="100" class="style-scope iron-icon"></rect>
			<path fill="white" d="M57.3,77.1c0.3-0.3,0.6-0.7,0.8-1l38.9-39c0.2-0.2,0.3-0.4,0.4-0.5c0.3-0.3,0.6-0.6,0.8-1
				c0.2-0.3,0.4-0.7,0.5-1s0.3-0.5,0.4-0.8c0.1-0.4,0.3-0.8,0.4-1.2c0.1-0.3,0.2-0.5,0.2-0.7c0.3-1.3,0.3-2.7,0-4
				c-0.1-0.3-0.2-0.6-0.3-0.8c-0.1-0.3-0.2-0.7-0.3-1.1c-0.1-0.3-0.3-0.6-0.5-0.9c-0.1-0.3-0.3-0.6-0.4-0.8c-0.4-0.5-0.8-1-1.2-1.5
				l-0.1-0.1l0,0c-0.5-0.5-1-0.9-1.5-1.2c-0.2-0.2-0.5-0.3-0.7-0.4c-0.3-0.2-0.6-0.4-1-0.5c-0.3-0.1-0.6-0.2-1-0.3
				c-0.3-0.1-0.6-0.2-0.9-0.3c-0.6-0.1-1.1-0.2-1.7-0.2c-0.1,0-0.2,0-0.3,0H11.2c-0.2,0-0.3,0-0.5,0c-2.8-0.2-5.6,0.8-7.7,2.9
				c-4,4-4,10.4,0,14.4l38.9,39c0.3,0.3,0.5,0.7,0.8,1c2,2,4.6,3,7.3,3C52.6,80,55.3,79.1,57.3,77.1z" class="style-scope iron-icon"></path>
		</g></svg>
    
  