<svg viewBox="0 0 100 100" preserveAspectRatio="xMidYMid meet" class="style-scope iron-icon" style="pointer-events: none; display: block; width: 100%; height: 100%;" xmlns="http://www.w3.org/2000/svg"><g class="style-scope iron-icon">
			<rect fill="black" fill-opacity="0" width="100" height="100" class="style-scope iron-icon"></rect>
			<path fill="white" d="M64.4,13.1c-0.7-0.7-1.6-1.2-2.5-1.4c-2.7-0.5-4.7,1.4-4.7,4.5c0,5.3,0,10.5,0,15.8c0,0.6,0,1.3-0.1,1.9H55
				c-8.4,0-16.7,0-25.1,0c-4,0-5.4,1.4-5.4,5.3c0,7.3,0,14.6,0,22c0,4,1.4,5.3,5.4,5.3c8.4,0,16.7,0,25.1,0h2.2v2.2
				c0,5.2,0,10.5,0,15.7c0,2,0.7,3.6,2.6,4.4c1.8,0.7,3.4,0,4.8-1.3c11.3-11.3,22.6-22.6,33.8-33.9c2.1-2.1,2.1-4.4,0-6.5
				C87.1,35.7,75.8,24.4,64.4,13.1z" class="style-scope iron-icon"></path>
			<path fill="white" d="M36,94.5H25.7C11.6,94.5,0.2,83.1,0.2,69V31c0-14.1,11.4-25.5,25.5-25.5H36c4.1,0,7.5,3.4,7.5,7.5s-3.4,7.5-7.5,7.5H25.7
				c-5.8,0-10.5,4.7-10.5,10.5v38c0,5.8,4.7,10.5,10.5,10.5H36c4.1,0,7.5,3.4,7.5,7.5S40.1,94.5,36,94.5z" class="style-scope iron-icon"></path>
		</g></svg>
    
  