<?xml version="1.0" encoding="UTF-8" standalone="no"?>
<!-- Created with Inkscape (http://www.inkscape.org/) -->

<svg
   width="100mm"
   height="100mm"
   viewBox="0 0 100 99.999997"
   version="1.1"
   id="svg1"
   xml:space="preserve"
   inkscape:version="1.3.2 (091e20e, 2023-11-25, custom)"
   sodipodi:docname="reconnectOff.svg"
   xmlns:inkscape="http://www.inkscape.org/namespaces/inkscape"
   xmlns:sodipodi="http://sodipodi.sourceforge.net/DTD/sodipodi-0.dtd"
   xmlns="http://www.w3.org/2000/svg"
   xmlns:svg="http://www.w3.org/2000/svg"><sodipodi:namedview
     id="namedview1"
     pagecolor="#ffffff"
     bordercolor="#000000"
     borderopacity="0.25"
     inkscape:showpageshadow="2"
     inkscape:pageopacity="0.0"
     inkscape:pagecheckerboard="0"
     inkscape:deskcolor="#d1d1d1"
     inkscape:document-units="mm"
     showgrid="true"
     inkscape:zoom="1.0847363"
     inkscape:cx="92.188303"
     inkscape:cy="122.1495"
     inkscape:window-width="1920"
     inkscape:window-height="1057"
     inkscape:window-x="3832"
     inkscape:window-y="-8"
     inkscape:window-maximized="1"
     inkscape:current-layer="layer1"
     showguides="true"><inkscape:grid
       id="grid2"
       units="mm"
       originx="0"
       originy="0"
       spacingx="0.99999998"
       spacingy="1"
       empcolor="#0099e5"
       empopacity="0.30196078"
       color="#0099e5"
       opacity="0.14902"
       empspacing="5"
       dotted="false"
       gridanglex="30"
       gridanglez="30"
       visible="true" /></sodipodi:namedview><defs
     id="defs1"><linearGradient
       id="swatch3"
       inkscape:swatch="solid"><stop
         style="stop-color:#970c0c;stop-opacity:1;"
         offset="0"
         id="stop3" /></linearGradient><style
       id="ee-google-fonts">@import url(https://fonts.googleapis.com/css?family=Rubik:300,300italic,400,400italic,500,500italic,700,700italic,900,900italic);</style><symbol
       id="NoSmoking"><title
         id="title240">No Smoking</title><rect
         x="18"
         y="37"
         height="5"
         width="30"
         style="stroke:none"
         id="rect240" /><rect
         x="49"
         y="37"
         width="1.5"
         height="5"
         style="stroke:none"
         id="rect241" /><rect
         x="51.5"
         y="37"
         width="1.5"
         height="5"
         style="stroke:none"
         id="rect242" /><path
         d="m 49.75,35.75 v -3.125 a 2.1875,2.1875 0 0 0 -2.1875,-2.1875 h -5.625 A 3.125,3.125 0 0 1 39.25,25.75 a 4.0625,4.0625 0 1 1 0,-8.125"
         style="fill:none;stroke-width:1.5"
         id="path242" /><path
         d="M 52.25,35.75 V 32 a 5.625,5.625 0 0 0 -5.5,-5.625 H 43.625 A 4.0625,4.0625 0 0 0 40.5,19.5"
         style="fill:none;stroke-width:1.5"
         id="path243" /><path
         d="M 18,18 54,54"
         style="fill:none;stroke:#ffffff;stroke-width:6.25"
         id="path244" /><path
         d="M 18,18 54,54"
         style="fill:none;stroke-width:6.25"
         id="path245" /><circle
         cx="36"
         cy="36"
         r="24"
         style="fill:none;stroke-width:6"
         id="circle245" /></symbol></defs><g
     inkscape:label="Layer 1"
     inkscape:groupmode="layer"
     id="layer1"
     style="display:inline"><rect
       fill="#000000"
       width="99.876709"
       height="99.876717"
       class="style-scope iron-icon"
       id="rect1-7"
       x="0.018073056"
       y="0.15180753"
       style="display:inline;stroke-width:0.998767"
       inkscape:label="background"
       sodipodi:insensitive="true" /><path
       style="display:inline;fill:#ffffff;stroke-width:0.94229"
       d="m 33.097607,37.673259 c 0,0 0.269022,-1.115218 1.266343,-3.029904 0.504531,-0.968619 1.457418,-2.478535 2.129316,-3.320031 0.523305,-0.655385 1.156661,-1.284961 1.775395,-1.834665 0.769217,-0.68338 1.562264,-1.341061 2.402017,-1.919314 0.768589,-0.529263 1.579719,-0.986615 2.401979,-1.411233 0.90129,-0.465424 1.81198,-0.927552 2.76753,-1.241933 0.76417,-0.251431 1.60871,-0.505898 2.402,-0.60684 0.46706,-0.05925 1.52569,-0.136269 1.9958,-0.15034 1.05114,-0.02962 0.57709,-0.02222 1.62828,-0.05221 0.76156,-0.02222 3.02766,0.08184 3.79908,0.254023 0.85643,0.191072 2.03634,0.647943 2.03634,0.647943 l 2.14156,1.037826 2.28926,1.756311 2.65846,2.394996 -7.16313,8.382448 -0.14763,0.957991 v 0.638649 l 0.22162,0.878155 0.44309,0.319194 h 1.69847 l 29.83401,-0.07998 -4.93508,-34.442201 -0.38185,-0.245136 -0.73846,-0.159597 -0.48002,0.119605 -7.49542,8.861425 -1.84617,-1.516804 -2.3631,-2.075653 -2.21541,-1.357169 -2.80617,-1.6764741 -2.65846,-1.2773339 c 0,0 -2.15729,-0.676233 -3.24926,-0.957991 -0.95323,-0.245881 -1.90716,-0.511086 -2.88002,-0.63869 -1.24721,-0.16367 -3.6917,-0.76677 -4.94772,-0.798245 -3.42072,-0.08591 -3.65486,-0.279203 -7.05233,0.159597 -0.30235,0.03888 -2.6246,0.546556 -2.91694,0.638759 -1.04631,0.329563 -2.08592,0.690564 -3.101566,1.117662 -1.180957,0.496603 -2.32987,1.0804112 -3.470775,1.6764749 -1.199467,0.6266877 -2.407117,1.2462284 -3.544642,1.9958171 -1.312101,0.864639 -2.57322,1.826889 -3.766175,2.87401 -1.122289,0.985059 -2.15463,2.086688 -3.175403,3.193315 -0.947082,1.026755 -1.62719,1.66333 -2.510784,2.75422 -0.737074,0.91 -1.332406,1.630891 -1.956938,2.634465 -0.639327,1.027348 -1.4443,2.184335 -1.993853,3.392905 -0.36504,0.802763 -0.892627,2.075653 -1.18155,2.913891 -0.497396,1.443078 -0.670188,1.92735 -1.10769,3.392905 -0.349075,1.169355 -0.811759,3.010611 -1.070786,4.550484 -0.07977,0.474163 -0.147698,1.436968 -0.147698,1.436968 l -0.05669,1.00961 0.02843,2.529376 16.367302,-0.06628 z"
       id="path2"
       inkscape:label="arrow1"
       sodipodi:nodetypes="csssssssssscccccccccccccccccccccsssssssssssssssaccccc"
       sodipodi:insensitive="true" /><path
       style="display:inline;fill:#ffffff;stroke-width:0.977562"
       d="m 72.348039,54.383841 c -0.4948,1.010715 -1.72418,4.445396 -1.72418,4.445396 l -1.78504,3.949955 -1.68303,3.048023 -1.73404,1.928358 -2.34607,2.114955 -2.34604,1.555084 -2.70307,1.368526 -2.29505,0.559832 -1.37705,0.06202 c 0,0 -3.13016,0.133021 -4.09041,0.06814 -0.36316,-0.02448 -1.2983,-0.131797 -1.2983,-0.131797 l -1.29827,-0.263999 c 0,0 -1.03345,-0.328881 -1.73104,-0.791762 -0.5832,-0.386822 -1.69499,-1.275534 -1.69499,-1.275534 l -4.72429,-4.046661 6.9963,-9.236895 0.1442,-1.055641 v -0.703745 l -0.21646,-0.967669 -0.43278,-0.351731 h -1.6589 l -29.139147,0.08814 4.820141,37.952992 0.372958,0.270122 0.721259,0.175866 0.468839,-0.131797 7.32084,-9.764695 1.80316,1.671416 2.30807,2.28723 2.16381,1.495509 2.74081,1.847363 2.59655,1.407536 c 0,0 2.10704,0.745163 3.17358,1.055641 0.93102,0.270939 1.86274,0.563096 2.81294,0.703788 1.21815,0.180354 2.49397,0.602065 4.03908,0.703707 1.65371,0.108535 2.38386,0.0759 3.11538,0.130981 0.73151,0.05549 3.1233,0.06855 4.78247,-0.174641 0.29531,-0.04285 1.87827,-0.426484 2.1638,-0.528086 1.02193,-0.363157 1.64064,-0.541022 2.63263,-1.011656 1.15345,-0.547222 3.14112,-1.542433 4.25545,-2.199255 1.17153,-0.690569 2.35106,-1.373262 3.46208,-2.199257 1.28155,-0.952775 2.51329,-2.01311 3.67846,-3.166966 1.09615,-1.08547 2.10445,-2.29939 3.10145,-3.518819 0.92502,-1.131415 1.80567,-2.316732 2.66868,-3.51882 0.71991,-1.002759 1.26531,-1.709159 1.8753,-2.81503 0.62443,-1.132068 1.2664,-2.53895 1.80316,-3.870713 0.35654,-0.884591 0.65545,-1.803376 0.93765,-2.727057 0.48581,-1.590175 0.87096,-3.223439 1.29827,-4.838382 0.34094,-1.28855 0.59079,-2.064481 0.80577,-3.124244 0.15547,-0.766341 0.34827,-2.32991 0.34827,-2.32991 l 0.0554,-1.579036 -0.0113,-2.530422 c 0,0 -12.63707,-0.06529 -15.17727,-0.03672 z"
       id="path2-4"
       inkscape:label="arrow2"
       sodipodi:nodetypes="ccccccccccsccscccccccccccccccccccssssssssssssssssacccc"
       sodipodi:insensitive="true" /><rect
       style="display:inline;fill:#970c0c;fill-opacity:1;stroke-width:1.4968"
       id="rect8"
       width="123.95414"
       height="18.644007"
       x="9.5296421"
       y="-9.9270487"
       inkscape:label="Off"
       ry="0"
       transform="matrix(0.70435227,0.70985061,-0.72995842,0.68349155,0,0)"
       inkscape:transform-center-x="-1.1441778"
       inkscape:transform-center-y="3.6319046"
       sodipodi:insensitive="true" /></g></svg>
