<?xml version="1.0" encoding="UTF-8" standalone="no"?>
<!-- Created with Inkscape (http://www.inkscape.org/) -->

<svg
   width="100mm"
   height="100mm"
   viewBox="0 0 100 100"
   version="1.1"
   id="svg1"
   xml:space="preserve"
   inkscape:version="1.3.2 (091e20e, 2023-11-25, custom)"
   sodipodi:docname="reconnect.svg"
   xmlns:inkscape="http://www.inkscape.org/namespaces/inkscape"
   xmlns:sodipodi="http://sodipodi.sourceforge.net/DTD/sodipodi-0.dtd"
   xmlns="http://www.w3.org/2000/svg"
   xmlns:svg="http://www.w3.org/2000/svg"><sodipodi:namedview
     id="namedview1"
     pagecolor="#ffffff"
     bordercolor="#000000"
     borderopacity="0.25"
     inkscape:showpageshadow="2"
     inkscape:pageopacity="0.0"
     inkscape:pagecheckerboard="0"
     inkscape:deskcolor="#d1d1d1"
     inkscape:document-units="mm"
     showgrid="true"
     inkscape:zoom="1.5340488"
     inkscape:cx="219.6801"
     inkscape:cy="197.84247"
     inkscape:window-width="1920"
     inkscape:window-height="1057"
     inkscape:window-x="3832"
     inkscape:window-y="-8"
     inkscape:window-maximized="1"
     inkscape:current-layer="layer1"><inkscape:grid
       id="grid2"
       units="mm"
       originx="0"
       originy="0"
       spacingx="0.99999998"
       spacingy="1"
       empcolor="#0099e5"
       empopacity="0.30196078"
       color="#0099e5"
       opacity="0.14902"
       empspacing="5"
       dotted="false"
       gridanglex="30"
       gridanglez="30"
       visible="true" /></sodipodi:namedview><defs
     id="defs1"><style
       id="ee-google-fonts">@import url(https://fonts.googleapis.com/css?family=Rubik:300,300italic,400,400italic,500,500italic,700,700italic,900,900italic);</style></defs><g
     inkscape:label="Layer 1"
     inkscape:groupmode="layer"
     id="layer1"
     style="display:inline"><rect
       fill="#000000"
       width="100"
       height="100"
       class="style-scope iron-icon"
       id="rect1-7"
       x="0.14002959"
       y="0.086679012"
       style="display:inline;stroke-width:0.994023"
       inkscape:label="background"
       sodipodi:insensitive="true" /><path
       style="display:inline;fill:#ffffff;stroke-width:0.94229"
       d="m 31.144767,37.683369 c 0,0 0.269022,-1.115218 1.266343,-3.029904 0.504531,-0.968619 1.457418,-2.478535 2.129316,-3.320031 0.523305,-0.655385 1.156661,-1.284961 1.775395,-1.834665 0.769217,-0.68338 1.562264,-1.341061 2.402017,-1.919314 0.768587,-0.529263 1.579716,-0.986615 2.401983,-1.411233 0.901282,-0.465424 1.811971,-0.927552 2.76753,-1.241933 0.764168,-0.251431 1.608703,-0.505898 2.402,-0.60684 0.467058,-0.05925 1.525688,-0.136269 1.995792,-0.15034 1.051145,-0.02962 0.577096,-0.02222 1.628282,-0.05221 0.761561,-0.02222 3.02766,0.08184 3.799086,0.254023 0.856428,0.191072 2.036337,0.647943 2.036337,0.647943 l 2.141558,1.037826 2.289257,1.756311 2.658468,2.394996 -7.163132,8.382448 -0.14763,0.957991 v 0.638649 l 0.221616,0.878155 0.443095,0.319194 h 1.698463 l 29.834013,-0.07998 -4.93508,-34.4422017 -0.38185,-0.2451358 -0.73846,-0.1595972 -0.48002,0.1196053 -7.495422,8.8614254 -1.846162,-1.516804 -2.363105,-2.075653 -2.215408,-1.357169 -2.806167,-1.6764747 -2.658468,-1.277334 c 0,0 -2.157288,-0.676233 -3.249262,-0.9579907 C 57.601928,6.3312446 56.647996,6.0660391 55.675136,5.9384353 54.42793,5.7747648 51.983433,5.1716649 50.727417,5.1401898 47.306696,5.0542808 47.072557,4.8609871 43.675082,5.299787 c -0.30235,0.038881 -2.624599,0.5465559 -2.916937,0.6387594 -1.046305,0.3295628 -2.085918,0.6905637 -3.101564,1.1176619 -1.180957,0.496603 -2.32987,1.080411 -3.470775,1.676475 -1.199467,0.626688 -2.407117,1.246229 -3.544642,1.9958177 -1.312101,0.864639 -2.57322,1.826889 -3.766175,2.87401 -1.122289,0.985059 -2.15463,2.086688 -3.175403,3.193315 -0.947082,1.026755 -1.62719,1.66333 -2.510784,2.75422 -0.737074,0.91 -1.332406,1.630891 -1.956938,2.634465 -0.639327,1.027348 -1.4443,2.184335 -1.993853,3.392905 -0.36504,0.802763 -0.892627,2.075653 -1.18155,2.913891 -0.497396,1.443078 -0.670188,1.92735 -1.10769,3.392905 -0.349075,1.169355 -0.811759,3.010611 -1.070786,4.550484 -0.07977,0.474163 -0.147698,1.436968 -0.147698,1.436968 l -0.05669,1.00961 0.02843,2.529376 16.367302,-0.06628 z"
       id="path2"
       inkscape:label="arrow1"
       sodipodi:nodetypes="csssssssssscccccccccccccccccccccsssssssssssssssaccccc" /><path
       style="display:inline;fill:#ffffff;stroke-width:0.977562"
       d="m 71.468563,54.671339 c -0.494802,1.010715 -1.724175,4.445396 -1.724175,4.445396 l -1.785047,3.949955 -1.683025,3.048023 -1.734043,1.928358 -2.346072,2.114955 -2.346037,1.555084 -2.703072,1.368526 -2.295051,0.559832 -1.377046,0.06202 c 0,0 -3.130158,0.133021 -4.090415,0.06814 -0.363156,-0.02448 -1.298295,-0.131797 -1.298295,-0.131797 l -1.298269,-0.263999 c 0,0 -1.033453,-0.328881 -1.731045,-0.791762 -0.583194,-0.386822 -1.69499,-1.275534 -1.69499,-1.275534 l -4.724282,-4.046661 6.996295,-9.236895 0.144198,-1.055641 V 56.265594 L 45.56173,55.297925 45.128955,54.946194 h -1.658904 l -29.139144,0.08814 4.820141,37.952992 0.372958,0.270122 0.721259,0.175866 0.468839,-0.131797 7.320842,-9.764695 1.803162,1.671416 2.308067,2.28723 2.163807,1.495509 2.740808,1.847363 2.59655,1.407536 c 0,0 2.107041,0.745163 3.173582,1.055641 0.931023,0.270939 1.862743,0.563096 2.812938,0.703788 1.218156,0.180354 2.493969,0.602065 4.039086,0.703707 1.653711,0.108535 2.383861,0.0759 3.115375,0.130981 0.731515,0.05549 3.123302,0.06855 4.782473,-0.174641 0.295309,-0.04285 1.878269,-0.426484 2.163799,-0.528086 1.021935,-0.363157 1.640638,-0.541022 2.632627,-1.011656 1.153451,-0.547222 3.141125,-1.542433 4.255457,-2.199255 1.17153,-0.690569 2.351053,-1.373262 3.462082,-2.199257 1.281541,-0.952775 2.513287,-2.01311 3.678457,-3.166966 1.09615,-1.08547 2.104446,-2.29939 3.101444,-3.518819 0.925024,-1.131415 1.80567,-2.316732 2.668684,-3.51882 0.719907,-1.002759 1.26531,-1.709159 1.875296,-2.81503 0.624435,-1.132068 1.266409,-2.53895 1.803162,-3.870713 0.356538,-0.884591 0.655455,-1.803376 0.937649,-2.727057 0.485812,-1.590175 0.87096,-3.223439 1.298271,-4.838382 0.340945,-1.28855 0.590794,-2.064481 0.805776,-3.124244 0.155468,-0.766341 0.348264,-2.32991 0.348264,-2.32991 l 0.05536,-1.579036 -0.01132,-2.530422 c 0,0 -12.637072,-0.06529 -15.17727,-0.03672 z"
       id="path2-4"
       inkscape:label="arrow2"
       sodipodi:nodetypes="ccccccccccsccscccccccccccccccccccssssssssssssssssacccc" /></g></svg>
