<svg viewBox="0 0 100 100" preserveAspectRatio="xMidYMid meet" style="pointer-events: none; display: block; width: 100%; height: 100%;" xmlns="http://www.w3.org/2000/svg"><g >
			<rect x="0" y="0" fill="none" width="100" height="100"></rect>
			<path fill="-65536" d="m 49.95,100 c -6.899999,0 -13.399999,-1.299996 -19.499999,-3.899996 -6.1,-2.6 -11.4,-6.2 -15.9,-10.7 -4.499996,-4.5 -7.9999966,-9.8 -10.5999966,-15.899999 -2.6,-6.1 -3.9,-12.599999 -3.9,-19.5 0,-6.9 1.3,-13.400001 3.9,-19.500001 2.6,-6.1 6.2000006,-11.4 10.6999966,-15.9 4.5,-4.5 9.8,-8.1000039 15.9,-10.7000039 6,-2.6 12.5,-3.89999995000001 19.399999,-3.89999995000001 6.9,0 13.4,1.29999995000001 19.5,3.89999995000001 6.1,2.6 11.4,6.2000039 15.9,10.7000039 4.5,4.5 8.1,9.8 10.7,15.9 2.599996,6.1 3.899996,12.600001 3.899996,19.500001 0,6.900001 -1.3,13.4 -3.899996,19.5 -2.6,6.099999 -6.2,11.399999 -10.7,15.899999 -4.5,4.5 -9.8,8.1 -15.9,10.7 -6,2.6 -12.5,3.899996 -19.5,3.899996" ></path>
		</g></svg>