<svg viewBox="0 0 100 100" preserveAspectRatio="xMidYMid meet" style="pointer-events: none; display: block; width: 100%; height: 100%;" xmlns="http://www.w3.org/2000/svg"><g transform="matrix(0,1.0286017,-1.0030992,0,100.55992,-2.866374)">
			<path fill="-1" d="M 54.279999,2.5039344 C 53.38087,1.6048055 52.224847,0.96257024 51.068824,0.70567655 47.600757,0.06344233 45.031818,2.5039344 45.031818,6.4857898 c 0,6.8076882 0,13.4869292 0,20.2946172 0,0.770682 0,1.66981 -0.128448,2.440492 l -2.697385,0 c -10.789544,0 -21.45064,0 -32.2401837,0 -5.1378781,0 -6.9361352,1.798257 -6.9361352,6.807689 0,9.376627 0,18.753254 0,28.258328 0,5.137878 1.7982571,6.807689 6.9361352,6.807689 10.7895437,0 21.4506397,0 32.2401837,0 l 2.825833,0 0,2.825832 c 0,6.679242 0,13.48693 0,20.166171 0,2.56894 0.899128,4.624094 3.33962,5.651671 2.312046,0.899121 4.367196,0 6.165454,-1.669817 14.514505,-14.514504 29.02901,-29.029009 43.415069,-43.543514 2.697389,-2.697386 2.697389,-5.651665 0,-8.349051 C 83.437456,31.532945 68.922951,17.01844 54.279999,2.5039344 Z" ></path>
		</g></svg>