<svg viewBox="0 0 100 100" preserveAspectRatio="xMidYMid meet" style="pointer-events: none; display: block; width: 100%; height: 100%;" xmlns="http://www.w3.org/2000/svg"><g >
			<path fill="-1" d="M50,0C22.4,0,0,22.4,0,50c0,27.6,22.4,50,50,50c27.6,0,50-22.4,50-50C100,22.4,77.6,0,50,0z M50,89.1
			c-21.6,0-39.1-17.5-39.1-39.1S28.4,10.9,50,10.9c21.6,0,39.1,17.5,39.1,39.1S71.6,89.1,50,89.1z"></path>
			<polygon fill="-1" points="53.8,21.7 46.2,21.7 46.2,51.6 64.7,70.1 70.1,64.7 53.8,48.4 		"></polygon>
		</g></svg>
    
  