<svg viewBox="0 0 100 100" preserveAspectRatio="xMidYMid meet" style="pointer-events: none; display: block; width: 100%; height: 100%;" xmlns="http://www.w3.org/2000/svg"><g >
			<path fill="-1" d="m 58.2,75.5 -35.1,0 c -2,0 -3.6,-1.6 -3.6,-3.6 l 0,-7.5 c 0,-2.9 3.3,-4.1 5.1,-4.8 6,-2.5 8,-4.6 8,-9.2 0,-2.7 -1.8,-1.8 -2.7,-6.8 -0.3,-2.1 -2,0 -2.3,-4.8 0,-1.9 0.9,-2.4 0.9,-2.4 0,0 -0.5,-2.8 -0.6,-4.9 -0.2,-2.7 1.4,-9.6 9.7,-9.6 8.4,0 9.9,6.9 9.7,9.6 -0.2,2.2 -0.6,4.9 -0.6,4.9 0,0 0.9,0.5 0.9,2.4 -0.3,4.7 -1.9,2.7 -2.3,4.8 -0.8,5 -2.7,4.1 -2.7,6.8 0,4.6 1.9,6.7 8,9.2 6.1,2.5 11.2,5 11.2,7.6 l 0,4.7 c 0.1,1.9 -1.5,3.6 -3.6,3.6 z" ></path>
      <path fill="-1" d="m 70.4,75.5 c -2,0 -3.6,-1.6 -3.6,-3.6 l 0,-5.4 c 0,-4.4 -1.3,-5.4 -11.2,-10.4 1.9,-1.3 2.5,-2.8 2.5,-5.1 0,-2.1 -1.4,-1.4 -2,-5.1 -0.3,-1.6 -1.5,0 -1.7,-3.6 0,-1.4 0.7,-1.8 0.7,-1.8 0,0 -0.3,-2.1 -0.5,-3.7 -0.2,-2 1,-7.2 7.3,-7.2 6.3,0 7.5,5.2 7.3,7.2 -0.1,1.6 -0.5,3.7 -0.5,3.7 0,0 0.7,0.4 0.7,1.8 -0.2,3.6 -1.5,2 -1.7,3.6 -0.6,3.8 -2,3.1 -2,5.1 0,3.4 1.4,5 6,6.9 4.5,1.9 7,3.1 8,4.9 0.4,0.7 0.7,5.5 0.7,9 0.1,2 -1.6,3.7 -3.6,3.7 l -6.4,0 z" ></path>
		</g></svg>