<svg viewBox="0 0 100 100" preserveAspectRatio="xMidYMid meet" class="style-scope iron-icon" style="pointer-events: none; display: block; width: 100%; height: 100%;" xmlns="http://www.w3.org/2000/svg"><g class="style-scope iron-icon">
			<path fill="white" d="M100,56.2V43.7l-15-6.2c-0.4-1.2-0.9-2.3-1.4-3.4l6-15l-8.8-8.8L66,16.3c-1.1-0.6-2.3-1-3.5-1.4L56.2,0
			H43.7l-6.2,14.8c-1.2,0.4-2.4,0.9-3.6,1.5l-14.8-6l-8.8,8.8l6.1,14.7c-0.6,1.2-1.1,2.4-1.5,3.7L0,43.8v12.5l14.7,6.1
			c0.4,1.3,0.9,2.5,1.5,3.7L10.3,81l8.8,8.8l14.8-6.1c1.2,0.6,2.4,1,3.6,1.4l6.3,14.8h12.5l6.2-14.9c1.2-0.4,2.4-0.9,3.5-1.4l15,6
			l8.8-8.9L83.7,66c0.5-1.1,1-2.3,1.4-3.4L100,56.2z M49.9,68.8c-10.3,0-18.7-8.4-18.7-18.7c0-10.4,8.4-18.8,18.7-18.8
			c10.4,0,18.8,8.4,18.8,18.8C68.7,60.4,60.3,68.8,49.9,68.8z" class="style-scope iron-icon"></path>
			<rect fill-opacity="0" y="0" fill="black" width="100" height="100" class="style-scope iron-icon"></rect>
		</g></svg>
    
  