<svg viewBox="0 0 100 100" preserveAspectRatio="xMidYMid meet" class="style-scope iron-icon" style="pointer-events: none; display: block; width: 100%; height: 100%;" xmlns="http://www.w3.org/2000/svg"><g class="style-scope iron-icon">
			<rect fill="black" width="100" height="100" class="style-scope iron-icon"></rect>
			<polygon fill="white" points="46.3,19.5 34.1,19.5 34.1,33.3 20.3,33.3 20.3,45.5 34.1,45.5 34.1,59.3 46.3,59.3 46.3,45.5
			60.1,45.5 60.1,33.3 46.3,33.3 	" class="style-scope iron-icon"></polygon>
			<path fill="white" d="M98.6,84.2L98,83.6v0L73.9,59.5c3.3-5.8,5.3-12.5,5.3-19.6C79.4,18,61.8,0.1,39.9,0c-0.1,0-0.2,0-0.3,0
			C17.9,0,0.1,17.6,0,39.4c-0.1,21.9,17.5,39.8,39.4,39.9c0.1,0,0.2,0,0.3,0c7.3,0,14.1-2,20-5.4L83.7,98l0.6,0.6
			c1.8,1.8,4.8,1.8,6.6,0l7.7-7.8C100.5,89,100.5,86,98.6,84.2z M60.4,60.6c-5.6,5.5-13,8.6-20.8,8.6h-0.2
			C23.2,69.1,10,55.7,10.1,39.4c0.1-16.2,13.3-29.3,29.5-29.3h0.2c7.9,0,15.3,3.2,20.8,8.8c5.5,5.6,8.6,13,8.5,20.9
			C69.1,47.7,66,55,60.4,60.6z" class="style-scope iron-icon"></path>
		</g></svg>
    
  