<svg viewBox="0 0 100 100" preserveAspectRatio="xMidYMid meet" style="pointer-events: none; display: block; width: 100%; height: 100%;" xmlns="http://www.w3.org/2000/svg"><g >
			<rect x="0" y="0" fill="none" width="100" height="100"></rect>
			<path fill="-1" d="M97.1,82.1c4,4,3.8,10.3-0.2,14.4c-4.1,4-10.5,4-14.4-0.2l-50-51.2c-4.3-4.1-6.8-5.4-10.3-4.3
				c-3.5,1.3-8.4,1.3-13-1.7C-0.6,32.7,0,20.8,0,20.8l0.8-1.3c0,0,8.9,5.7,10,6.3c1.4,1.1,6.4,3.3,10.8-3.5c4.6-6.8,0.8-11.1-0.5-11.9
				C20,9.9,11.1,4,11.1,4l0.8-1.3c0,0,10.3-5.2,20,0.5c0,0.3,2.4,1.7,3.3,2.5c6.2,5.6,6.2,11.7,5.1,16.8c-0.9,4.6,0,6.2,3.7,10.2
				L97.1,82.1z M93.5,85.4c-2.1-2.1-5.4-2.1-7.6,0c-1.9,2.1-1.9,5.6,0,7.5c2.2,2.1,5.5,2.4,7.6,0.2C95.5,91.1,95.5,87.5,93.5,85.4z"></path>
		</g></svg>
    
  